<?xml version="1.0" encoding="UTF-8" standalone="no"?>
<!-- Created with Inkscape (http://www.inkscape.org/) -->

<svg width="900" height="570" viewBox="0 0 238.125 150.812" version="1.1" id="svg1" inkscape:version="1.4 (e7c3feb100, 2024-10-09)" sodipodi:docname="screenshot.svg" inkscape:export-filename="/home/jeff/Downloads/screenshot.png" inkscape:export-xdpi="96" inkscape:export-ydpi="96" xml:space="preserve" xmlns:inkscape="http://www.inkscape.org/namespaces/inkscape" xmlns:sodipodi="http://sodipodi.sourceforge.net/DTD/sodipodi-0.dtd" xmlns="http://www.w3.org/2000/svg" xmlns:svg="http://www.w3.org/2000/svg"><sodipodi:namedview id="namedview1" pagecolor="#ffffff" bordercolor="#666666" borderopacity="1.0" inkscape:showpageshadow="2" inkscape:pageopacity="0.0" inkscape:pagecheckerboard="0" inkscape:deskcolor="#d1d1d1" inkscape:document-units="px" inkscape:zoom="1.13625" inkscape:cx="457.206" inkscape:cy="352.475" inkscape:current-layer="layer1" /><defs id="defs1" /><g inkscape:label="Layer 1" inkscape:groupmode="layer" id="layer1"><path id="path1-3" style="stroke-width:0.124023;fill:#33786b;fill-opacity:1" class="vectorShapeSquiggle_bottom" d="M 59.4072 28.7556 C 57.7949 28.8796 55.1905 35.0808 49.4854 34.9568 C 45.2686 34.8328 41.0517 29.8718 39.5635 30.1199 C 38.1992 30.2439 34.9747 35.7009 30.5098 35.5769 C 25.6729 35.4529 22.3242 29.4998 20.4639 30.2439 C 19.4716 30.616 19.7197 30.864 17.6113 33.3445 C 16.0156 35.3157 14.4227 36.925 13.1496 37.8093 L 7.74268 37.8093 C 6.72317 37.2842 5.77444 36.5842 4.96094 35.825 C 2.23244 33.5925 0.7441 32.6003 0 32.4763 L 0 43.1423 L 0 106.741 L 0 110.379 L 0 115.919 C 0.7441 116.043 2.23244 117.035 4.96094 119.267 C 6.82134 121.004 9.30167 122.616 12.0303 121.872 C 13.3945 121.376 15.5029 119.392 17.6113 116.787 C 19.7197 114.307 19.4716 114.059 20.4639 113.686 C 22.3239 112.942 25.6728 118.895 30.5098 119.019 C 34.9747 119.144 38.199 113.686 39.563 113.562 C 41.0513 113.314 45.2685 118.275 49.4854 118.399 C 55.1906 118.524 57.7947 112.322 59.4072 112.198 C 60.8955 112.074 64.2439 117.779 69.4531 118.399 C 74.0422 118.895 76.1504 114.182 76.7705 114.059 C 78.0108 113.686 78.7551 116.167 83.0957 116.663 C 86.6925 117.035 88.5528 114.678 89.6689 114.678 C 90.9092 114.678 93.0178 117.531 97.6064 117.903 C 102.071 118.151 104.304 115.547 105.916 115.671 C 106.784 115.919 107.776 116.787 109.141 117.655 C 110.629 118.771 112.489 119.888 114.846 120.136 C 120.799 120.632 124.768 113.314 127.62 115.423 C 133.077 119.267 134.069 119.763 136.55 119.888 C 142.007 120.012 146.347 114.555 147.712 114.43 C 148.952 114.307 151.681 116.787 155.774 117.531 C 162.223 118.771 165.943 113.191 168.051 113.314 C 170.408 113.439 174.129 120.632 180.702 121.128 C 186.407 121.5 192.112 115.671 193.972 115.299 C 195.957 114.803 198.933 120.756 205.382 121.252 C 210.963 121.624 215.056 117.035 217.537 116.787 C 219.769 116.663 220.141 119.019 226.838 119.144 C 234.156 119.267 236.76 116.787 238.125 116.663 L 238.125 110.379 L 238.125 106.741 L 238.125 39.1322 L 238.125 33.2205 C 236.761 33.3446 234.156 35.825 226.839 35.7009 C 220.142 35.5769 219.769 33.2204 217.537 33.3445 C 215.057 33.5925 210.964 38.1814 205.383 37.8093 C 198.933 37.3132 195.957 31.3601 193.973 31.8562 C 192.112 32.2283 186.407 38.0574 180.702 37.6853 C 174.129 37.1892 170.408 29.9959 168.052 29.8718 C 165.943 29.7478 162.223 35.3289 155.773 34.0886 C 151.68 33.3445 148.952 30.864 147.712 30.988 C 146.347 31.112 142.007 36.5691 136.55 36.4451 C 134.069 36.321 133.077 35.825 127.62 31.9802 C 124.768 29.8718 120.799 37.1892 114.846 36.6931 C 112.489 36.4451 110.629 35.3289 109.14 34.2126 C 107.776 33.3445 106.784 32.4763 105.916 32.2283 C 104.304 32.1043 102.071 34.7087 97.6064 34.4607 C 93.0173 34.0886 90.9092 31.2361 89.6689 31.2361 C 88.5523 31.2361 86.6924 33.5926 83.0957 33.2205 C 78.7546 32.7245 78.0108 30.2439 76.7705 30.616 C 76.1503 30.74 74.042 35.4529 69.4531 34.9568 C 64.2441 34.3367 60.8955 28.6316 59.4072 28.7556 z " /><text xml:space="preserve" style="font-size:18.5208px;line-height:1.25;font-family:FontAwesome;-inkscape-font-specification:FontAwesome;text-align:center;text-anchor:middle;fill:#ffffff;fill-opacity:1;stroke-width:0.264583" x="119.393" y="82.6423" id="text2"><tspan id="tspan2" style="font-style:normal;font-variant:normal;font-weight:bold;font-stretch:normal;font-size:18.5208px;font-family:Comfortaa;-inkscape-font-specification:'Comfortaa Bold';fill:#ffffff;fill-opacity:1;stroke-width:0.264583" x="119.393" y="82.6423" sodipodi:role="line">Therapize</tspan></text><g id="g1" transform="matrix(0.08319,0,0,0.08319,162.248,68.6663)"><path class="svgDrawPath" fill="none" stroke="#e39a7b" stroke-linecap="round" stroke-linejoin="round" stroke-width="50" d="M 324,682 C 443,661 552,671 662,675 544,681 427,691 313,712 429,719 550,713 670,707 550,722 431,737 311,749 427,751 547,749 666,747 567,769 437,776 313,786 424,795 544,790 662,790 558,810 436,817 318,827 409,843 544,831 659,831 553,852 443,858 334,868 435,885 542,875 648,870 590,879 533,896 474,896" id="path1" /><path class="svgDrawPath" fill="none" stroke="#49b697" stroke-linecap="round" stroke-linejoin="round" stroke-width="50" d="M 59,110 C 94,78 137,58 190,55 135,84 94,130 56,168 114,135 172,101 231,82 178,130 95,162 77,228 140,174 207,148 273,120 L 172,208 346,128 74,308 360,171 76,356 271,270 C 213,315 154,360 94,404 151,396 205,377 254,328 314,258 312,171 388,261 444,343 485,275 477,222 463,143 335,80 632,24 L 465,106 C 534,94 613,51 672,70 L 475,151 C 542,139 617,88 674,124 602,104 606,157 497,185 L 634,184 506,223 611,264 492,270 563,301 C 439,320 387,341 315,361 L 575,345 301,397 592,383 310,443 603,428 316,477 604,478 343,529 579,528 395,570 556,574 C 544,593 533,614 468,600 L 490,634 C 445,610 401,571 348,585 L 279,473 C 222,455 153,501 97,547 163,526 241,494 271,511 225,593 127,589 88,658 143,623 199,591 260,598 284,543 283,552 307,601 L 343,615 235,636 340,649 193,674 324,691 134,720 282,729 136,770 217,765 187,810" id="path2" /><path fill="none" stroke="#323b3b" stroke-linecap="round" stroke-linejoin="round" stroke-width="5" d="M 200,791 C 192,696 259,570 320,519 369,480 372,576 371,605 372,657 348,721 295,746 245,765 209,796 201,850 194,886 224,869 198,845 171,822 127,790 108,759 95,719 134,690 162,672 178,662 229,641 190,631 150,622 119,654 101,676 83,697 80,726 70,684 59,642 99,597 137,586 176,574 226,562 220,535 214,507 151,538 128,553 116,561 84,578 76,576 70,573 81,543 96,526 128,488 158,476 194,460 235,447 289,443 324,470 346,490 364,483 375,530 376,600 345,673 316,690 294,702 279,842 322,873 363,894 414,890 459,892 505,894 580,893 624,881 669,869 576,855 534,854 492,854 408,853 369,857 330,860 289,860 315,881 380,919 533,908 595,899 657,891 678,884 686,832 694,780 698,698 670,675 643,651 551,657 501,653 451,649 399,659 359,664 318,670 274,690 362,695 449,700 537,709 636,688 687,679 689,669 641,669 587,659 530,683 475,673 561,620 600,574 623,499 645,423 616,367 597,322 584,283 542,260 502,263 472,267 431,293 420,320 410,346 429,373 441,398 460,437 479,476 493,517 510,557 527,615 494,652 468,690 467,635 429,618 391,601 361,583 334,549 306,516 276,467 276,417 276,372 308,331 353,325 386,318 457,314 405,271 360,243 386,184 372,143 355,96 301,94 263,109 248,60 200,43 161,41 108,37 55,75 48,129 32,172 56,217 75,250 95,283 107,226 128,210 150,193 184,200 154,225 126,259 80,276 59,316 38,360 77,396 87,436 105,451 120,403 141,364 162,325 183,266 236,176 245,150 274,149 251,178 221,228 182,291 163,335 145,379 125,401 122,433 152,411 191,403 221,380 261,352 302,301 305,262 307,223 275,168 280,214 286,260 334,272 354,237 374,202 357,154 346,168 335,183 381,242 393,283 412,328 456,263 451,236 441,198 400,168 416,124 420,86 439,52 477,39 516,28 553,38 590,18 628,-2 682,33 696,66 710,99 673,167 668,160 632,110 591,134 624,154 636,161 657,176 664,191 676,216 654,233 650,224 631,197 586,178 579,197 572,216 619,234 639,244 649,252 631,350 588,284 560,250 548,194 545,163 542,132 540,68 554,79 543,131 556,183 565,234 568,282 588,327 653,325 718,323 767,355 807,338 847,321 909,286 872,319 835,353 882,231 848,200 813,169 780,195 738,184 695,174 753,163 788,144 823,126 751,61 717,88 723,93 730,99 745,91" id="path3" /></g></g></svg>
